<mxfile host="65bd71144e">
    <diagram id="-ArPhzRPO15ttA2Pk8TQ" name="Page-1">
        <mxGraphModel dx="4613" dy="2731" grid="1" gridSize="10" guides="1" tooltips="1" connect="1" arrows="1" fold="1" page="1" pageScale="1" pageWidth="850" pageHeight="1100" background="#ffffff" math="0" shadow="0">
            <root>
                <mxCell id="0"/>
                <mxCell id="1" parent="0"/>
                <mxCell id="25" value="&lt;div style=&quot;color: rgb(204, 204, 204); background-color: rgb(31, 31, 31); font-family: Consolas, &amp;quot;Courier New&amp;quot;, monospace; font-weight: normal; font-size: 14px; line-height: 19px;&quot;&gt;&lt;div&gt;&lt;span style=&quot;color: #cccccc;&quot;&gt;Illustrate with a UML activity diagram how your Chirp! applications are build, tested, released, and deployed. That is, illustrate the flow of activities in your respective GitHub Actions workflows.&lt;/span&gt;&lt;/div&gt;&lt;/div&gt;" style="text;whiteSpace=wrap;html=1;" parent="1" vertex="1">
                    <mxGeometry x="-2460" y="-1050" width="560" height="80" as="geometry"/>
                </mxCell>
                <mxCell id="72" value="" style="ellipse;html=1;shape=startState;fillColor=#000000;strokeColor=#ff0000;" parent="1" vertex="1">
                    <mxGeometry x="-1952.5" y="-850" width="30" height="30" as="geometry"/>
                </mxCell>
                <mxCell id="73" value="" style="edgeStyle=orthogonalEdgeStyle;html=1;verticalAlign=bottom;endArrow=open;endSize=8;strokeColor=#ff0000;entryX=0.5;entryY=0;entryDx=0;entryDy=0;" parent="1" source="72" target="77" edge="1">
                    <mxGeometry relative="1" as="geometry">
                        <mxPoint x="-1937.5" y="-780" as="targetPoint"/>
                    </mxGeometry>
                </mxCell>
                <mxCell id="75" value="&lt;span style=&quot;font-size: 19px;&quot;&gt;Build and Test&lt;/span&gt;" style="text;html=1;strokeColor=none;fillColor=none;align=center;verticalAlign=middle;whiteSpace=wrap;rounded=0;fontColor=#0A0A0A;" parent="1" vertex="1">
                    <mxGeometry x="-1997.5" y="-930" width="120" height="30" as="geometry"/>
                </mxCell>
                <mxCell id="77" value="Create Job &quot;Build&quot;" style="rounded=1;whiteSpace=wrap;html=1;arcSize=40;fontColor=#000000;fillColor=#ffffc0;strokeColor=#ff0000;" parent="1" vertex="1">
                    <mxGeometry x="-1997.5" y="-760" width="120" height="40" as="geometry"/>
                </mxCell>
                <mxCell id="78" value="" style="edgeStyle=orthogonalEdgeStyle;html=1;verticalAlign=bottom;endArrow=open;endSize=8;strokeColor=#ff0000;" parent="1" source="77" edge="1">
                    <mxGeometry relative="1" as="geometry">
                        <mxPoint x="-1937.5" y="-660" as="targetPoint"/>
                    </mxGeometry>
                </mxCell>
                <mxCell id="79" value="Setup dotnet" style="rounded=1;whiteSpace=wrap;html=1;arcSize=40;fontColor=#000000;fillColor=#ffffc0;strokeColor=#ff0000;" parent="1" vertex="1">
                    <mxGeometry x="-1997.5" y="-670" width="120" height="40" as="geometry"/>
                </mxCell>
                <mxCell id="80" value="" style="edgeStyle=orthogonalEdgeStyle;html=1;verticalAlign=bottom;endArrow=open;endSize=8;strokeColor=#ff0000;entryX=0.5;entryY=0;entryDx=0;entryDy=0;" parent="1" source="79" edge="1">
                    <mxGeometry relative="1" as="geometry">
                        <mxPoint x="-1937.5" y="-570" as="targetPoint"/>
                    </mxGeometry>
                </mxCell>
                <mxCell id="91" value="&lt;span class=&quot;pl-s&quot;&gt;Restore dependencies&lt;/span&gt;" style="rounded=1;whiteSpace=wrap;html=1;arcSize=40;fontColor=#000000;fillColor=#ffffc0;strokeColor=#ff0000;" parent="1" vertex="1">
                    <mxGeometry x="-1997.5" y="-580" width="120" height="40" as="geometry"/>
                </mxCell>
                <mxCell id="92" value="" style="edgeStyle=orthogonalEdgeStyle;html=1;verticalAlign=bottom;endArrow=open;endSize=8;strokeColor=#ff0000;fontColor=#292929;entryX=0.5;entryY=0;entryDx=0;entryDy=0;" parent="1" source="91" target="93" edge="1">
                    <mxGeometry relative="1" as="geometry">
                        <mxPoint x="-1937.5" y="-470" as="targetPoint"/>
                    </mxGeometry>
                </mxCell>
                <mxCell id="93" value="Does it&amp;nbsp;&lt;span class=&quot;pl-s&quot;&gt;Restore dependencies?&lt;/span&gt;" style="rhombus;whiteSpace=wrap;html=1;fillColor=#ffffc0;strokeColor=#ff0000;fontColor=#292929;" parent="1" vertex="1">
                    <mxGeometry x="-2010" y="-510" width="145" height="60" as="geometry"/>
                </mxCell>
                <mxCell id="94" value="no" style="edgeStyle=orthogonalEdgeStyle;html=1;align=left;verticalAlign=bottom;endArrow=open;endSize=8;strokeColor=#ff0000;fontColor=#292929;entryX=0;entryY=0.5;entryDx=0;entryDy=0;labelBackgroundColor=none;" parent="1" source="93" target="96" edge="1">
                    <mxGeometry x="-1" relative="1" as="geometry">
                        <mxPoint x="-1832.5" y="-410" as="targetPoint"/>
                    </mxGeometry>
                </mxCell>
                <mxCell id="95" value="yes" style="edgeStyle=orthogonalEdgeStyle;html=1;align=left;verticalAlign=top;endArrow=open;endSize=8;strokeColor=#ff0000;fontColor=#292929;entryX=0.5;entryY=0;entryDx=0;entryDy=0;labelBackgroundColor=none;" parent="1" source="93" target="97" edge="1">
                    <mxGeometry x="-1" relative="1" as="geometry">
                        <mxPoint x="-1972.5" y="-330" as="targetPoint"/>
                    </mxGeometry>
                </mxCell>
                <mxCell id="96" value="" style="ellipse;html=1;shape=endState;fillColor=#000000;strokeColor=#ff0000;fontColor=#292929;" parent="1" vertex="1">
                    <mxGeometry x="-1822.5" y="-495" width="30" height="30" as="geometry"/>
                </mxCell>
                <mxCell id="97" value="Build" style="rounded=1;whiteSpace=wrap;html=1;arcSize=40;fontColor=#000000;fillColor=#ffffc0;strokeColor=#ff0000;" parent="1" vertex="1">
                    <mxGeometry x="-1997.5" y="-410" width="120" height="40" as="geometry"/>
                </mxCell>
                <mxCell id="98" value="" style="edgeStyle=orthogonalEdgeStyle;html=1;verticalAlign=bottom;endArrow=open;endSize=8;strokeColor=#ff0000;fontColor=#A3A3A3;entryX=0.5;entryY=0;entryDx=0;entryDy=0;" parent="1" source="97" target="99" edge="1">
                    <mxGeometry relative="1" as="geometry">
                        <mxPoint x="-1952.5" y="-190" as="targetPoint"/>
                    </mxGeometry>
                </mxCell>
                <mxCell id="99" value="&lt;font color=&quot;#171717&quot;&gt;Can it build?&lt;/font&gt;" style="rhombus;whiteSpace=wrap;html=1;fillColor=#ffffc0;strokeColor=#ff0000;fontColor=#A3A3A3;" parent="1" vertex="1">
                    <mxGeometry x="-1980" y="-317.5" width="85" height="50" as="geometry"/>
                </mxCell>
                <mxCell id="100" value="no" style="edgeStyle=orthogonalEdgeStyle;html=1;align=left;verticalAlign=bottom;endArrow=open;endSize=8;strokeColor=#ff0000;fontColor=#191919;entryX=0;entryY=0.5;entryDx=0;entryDy=0;labelBackgroundColor=none;" parent="1" source="99" target="103" edge="1">
                    <mxGeometry x="-1" relative="1" as="geometry">
                        <mxPoint x="-1864.5" y="-150" as="targetPoint"/>
                    </mxGeometry>
                </mxCell>
                <mxCell id="101" value="&lt;font color=&quot;#3b3b3b&quot;&gt;yes&lt;/font&gt;" style="edgeStyle=orthogonalEdgeStyle;html=1;align=left;verticalAlign=top;endArrow=open;endSize=8;strokeColor=#ff0000;fontColor=#A3A3A3;entryX=0.5;entryY=0;entryDx=0;entryDy=0;labelBackgroundColor=none;" parent="1" source="99" target="104" edge="1">
                    <mxGeometry x="-1" relative="1" as="geometry">
                        <mxPoint x="-1937.5" y="-120" as="targetPoint"/>
                        <Array as="points"/>
                    </mxGeometry>
                </mxCell>
                <mxCell id="103" value="" style="ellipse;html=1;shape=endState;fillColor=#000000;strokeColor=#ff0000;fontColor=#292929;" parent="1" vertex="1">
                    <mxGeometry x="-1822.5" y="-307.5" width="30" height="30" as="geometry"/>
                </mxCell>
                <mxCell id="104" value="Test" style="rounded=1;whiteSpace=wrap;html=1;arcSize=40;fontColor=#000000;fillColor=#ffffc0;strokeColor=#ff0000;" parent="1" vertex="1">
                    <mxGeometry x="-1997.5" y="-220" width="120" height="40" as="geometry"/>
                </mxCell>
                <mxCell id="105" value="" style="edgeStyle=orthogonalEdgeStyle;html=1;verticalAlign=bottom;endArrow=open;endSize=8;strokeColor=#ff0000;labelBackgroundColor=none;fontColor=#3B3B3B;entryX=0.5;entryY=0;entryDx=0;entryDy=0;" parent="1" source="104" target="106" edge="1">
                    <mxGeometry relative="1" as="geometry">
                        <mxPoint x="-1937.5" y="-140" as="targetPoint"/>
                    </mxGeometry>
                </mxCell>
                <mxCell id="106" value="Pass test?" style="rhombus;whiteSpace=wrap;html=1;fillColor=#ffffc0;strokeColor=#ff0000;fontColor=#3B3B3B;" parent="1" vertex="1">
                    <mxGeometry x="-1977.5" y="-140" width="80" height="40" as="geometry"/>
                </mxCell>
                <mxCell id="107" value="no" style="edgeStyle=orthogonalEdgeStyle;html=1;align=left;verticalAlign=bottom;endArrow=open;endSize=8;strokeColor=#ff0000;labelBackgroundColor=none;fontColor=#3B3B3B;entryX=0;entryY=0.5;entryDx=0;entryDy=0;" parent="1" source="106" target="109" edge="1">
                    <mxGeometry x="-1" relative="1" as="geometry">
                        <mxPoint x="-1792.5" y="-110" as="targetPoint"/>
                    </mxGeometry>
                </mxCell>
                <mxCell id="108" value="yes" style="edgeStyle=orthogonalEdgeStyle;html=1;align=left;verticalAlign=top;endArrow=open;endSize=8;strokeColor=#ff0000;labelBackgroundColor=none;fontColor=#3B3B3B;entryX=0.5;entryY=0;entryDx=0;entryDy=0;" parent="1" source="106" target="110" edge="1">
                    <mxGeometry x="-1" relative="1" as="geometry">
                        <mxPoint x="-1932.5" y="-30" as="targetPoint"/>
                    </mxGeometry>
                </mxCell>
                <mxCell id="109" value="" style="ellipse;html=1;shape=endState;fillColor=#000000;strokeColor=#ff0000;fontColor=#3B3B3B;" parent="1" vertex="1">
                    <mxGeometry x="-1822.5" y="-135" width="30" height="30" as="geometry"/>
                </mxCell>
                <mxCell id="110" value="Allows Merge of pull request" style="rounded=1;whiteSpace=wrap;html=1;arcSize=40;fontColor=#000000;fillColor=#ffffc0;strokeColor=#ff0000;" parent="1" vertex="1">
                    <mxGeometry x="-1997.5" y="-60" width="120" height="40" as="geometry"/>
                </mxCell>
                <mxCell id="111" value="" style="edgeStyle=orthogonalEdgeStyle;html=1;verticalAlign=bottom;endArrow=open;endSize=8;strokeColor=#ff0000;labelBackgroundColor=none;fontColor=#3B3B3B;entryX=0.5;entryY=0;entryDx=0;entryDy=0;" parent="1" source="110" target="112" edge="1">
                    <mxGeometry relative="1" as="geometry">
                        <mxPoint x="-1827.5" y="40" as="targetPoint"/>
                    </mxGeometry>
                </mxCell>
                <mxCell id="112" value="" style="ellipse;html=1;shape=endState;fillColor=#000000;strokeColor=#ff0000;fontColor=#3B3B3B;" parent="1" vertex="1">
                    <mxGeometry x="-1952.5" y="10" width="30" height="30" as="geometry"/>
                </mxCell>
                <mxCell id="115" value="&lt;span style=&quot;font-size: 19px;&quot;&gt;Publish new release&lt;/span&gt;" style="text;html=1;strokeColor=none;fillColor=none;align=center;verticalAlign=middle;whiteSpace=wrap;rounded=0;fontColor=#050505;" parent="1" vertex="1">
                    <mxGeometry x="-2300" y="-920" width="120" height="30" as="geometry"/>
                </mxCell>
                <mxCell id="116" value="" style="ellipse;html=1;shape=startState;fillColor=#000000;strokeColor=#ff0000;fontColor=#3B3B3B;" parent="1" vertex="1">
                    <mxGeometry x="-2255" y="-850" width="30" height="30" as="geometry"/>
                </mxCell>
                <mxCell id="117" value="" style="edgeStyle=orthogonalEdgeStyle;html=1;verticalAlign=bottom;endArrow=open;endSize=8;strokeColor=#ff0000;labelBackgroundColor=none;fontColor=#3B3B3B;entryX=0.5;entryY=0;entryDx=0;entryDy=0;" parent="1" source="116" target="118" edge="1">
                    <mxGeometry relative="1" as="geometry">
                        <mxPoint x="-2240" y="-760" as="targetPoint"/>
                    </mxGeometry>
                </mxCell>
                <mxCell id="118" value="Create Job &quot;Release&quot;" style="rounded=1;whiteSpace=wrap;html=1;arcSize=40;fontColor=#000000;fillColor=#ffffc0;strokeColor=#ff0000;" parent="1" vertex="1">
                    <mxGeometry x="-2300" y="-760" width="120" height="40" as="geometry"/>
                </mxCell>
                <mxCell id="119" value="" style="edgeStyle=orthogonalEdgeStyle;html=1;verticalAlign=bottom;endArrow=open;endSize=8;strokeColor=#ff0000;labelBackgroundColor=none;fontColor=#3B3B3B;entryX=0.5;entryY=0;entryDx=0;entryDy=0;" parent="1" source="118" target="120" edge="1">
                    <mxGeometry relative="1" as="geometry">
                        <mxPoint x="-2280" y="-580" as="targetPoint"/>
                    </mxGeometry>
                </mxCell>
                <mxCell id="120" value="Setup dotnet" style="rounded=1;whiteSpace=wrap;html=1;arcSize=40;fontColor=#000000;fillColor=#ffffc0;strokeColor=#ff0000;" parent="1" vertex="1">
                    <mxGeometry x="-2300" y="-670" width="120" height="40" as="geometry"/>
                </mxCell>
                <mxCell id="121" value="" style="edgeStyle=orthogonalEdgeStyle;html=1;verticalAlign=bottom;endArrow=open;endSize=8;strokeColor=#ff0000;labelBackgroundColor=none;fontColor=#3B3B3B;entryX=0.5;entryY=0;entryDx=0;entryDy=0;" parent="1" source="120" target="122" edge="1">
                    <mxGeometry relative="1" as="geometry">
                        <mxPoint x="-2285" y="-460" as="targetPoint"/>
                    </mxGeometry>
                </mxCell>
                <mxCell id="122" value="Restore dependencies" style="rounded=1;whiteSpace=wrap;html=1;arcSize=40;fontColor=#000000;fillColor=#ffffc0;strokeColor=#ff0000;" parent="1" vertex="1">
                    <mxGeometry x="-2300" y="-580" width="120" height="40" as="geometry"/>
                </mxCell>
                <mxCell id="123" value="" style="edgeStyle=orthogonalEdgeStyle;html=1;verticalAlign=bottom;endArrow=open;endSize=8;strokeColor=#ff0000;labelBackgroundColor=none;fontColor=#3B3B3B;entryX=0.5;entryY=0;entryDx=0;entryDy=0;" parent="1" source="122" target="124" edge="1">
                    <mxGeometry relative="1" as="geometry">
                        <mxPoint x="-2280" y="-340" as="targetPoint"/>
                    </mxGeometry>
                </mxCell>
                <mxCell id="124" value="&lt;span style=&quot;color: rgb(41, 41, 41);&quot;&gt;Does it&amp;nbsp;&lt;/span&gt;&lt;span style=&quot;color: rgb(41, 41, 41);&quot; class=&quot;pl-s&quot;&gt;Restore dependencies?&lt;/span&gt;" style="rhombus;whiteSpace=wrap;html=1;fillColor=#ffffc0;strokeColor=#ff0000;fontColor=#3B3B3B;" parent="1" vertex="1">
                    <mxGeometry x="-2305" y="-510" width="130" height="60" as="geometry"/>
                </mxCell>
                <mxCell id="125" value="no" style="edgeStyle=orthogonalEdgeStyle;html=1;align=left;verticalAlign=bottom;endArrow=open;endSize=8;strokeColor=#ff0000;labelBackgroundColor=none;fontColor=#3B3B3B;entryX=0;entryY=0.5;entryDx=0;entryDy=0;" parent="1" source="124" target="127" edge="1">
                    <mxGeometry x="-1" relative="1" as="geometry">
                        <mxPoint x="-2160" y="-480" as="targetPoint"/>
                    </mxGeometry>
                </mxCell>
                <mxCell id="126" value="yes" style="edgeStyle=orthogonalEdgeStyle;html=1;align=left;verticalAlign=top;endArrow=open;endSize=8;strokeColor=#ff0000;labelBackgroundColor=none;fontColor=#3B3B3B;entryX=0.5;entryY=0;entryDx=0;entryDy=0;" parent="1" source="124" target="128" edge="1">
                    <mxGeometry x="-1" relative="1" as="geometry">
                        <mxPoint x="-2420" y="-395" as="targetPoint"/>
                    </mxGeometry>
                </mxCell>
                <mxCell id="127" value="" style="ellipse;html=1;shape=endState;fillColor=#000000;strokeColor=#ff0000;fontColor=#3B3B3B;" parent="1" vertex="1">
                    <mxGeometry x="-2130" y="-495" width="30" height="30" as="geometry"/>
                </mxCell>
                <mxCell id="128" value="Build" style="rounded=1;whiteSpace=wrap;html=1;arcSize=40;fontColor=#000000;fillColor=#ffffc0;strokeColor=#ff0000;" parent="1" vertex="1">
                    <mxGeometry x="-2300" y="-410" width="120" height="40" as="geometry"/>
                </mxCell>
                <mxCell id="129" value="" style="edgeStyle=orthogonalEdgeStyle;html=1;verticalAlign=bottom;endArrow=open;endSize=8;strokeColor=#ff0000;labelBackgroundColor=none;fontColor=#3B3B3B;entryX=0.5;entryY=0;entryDx=0;entryDy=0;" parent="1" source="128" target="133" edge="1">
                    <mxGeometry relative="1" as="geometry">
                        <mxPoint x="-2240" y="-310" as="targetPoint"/>
                    </mxGeometry>
                </mxCell>
                <mxCell id="133" value="Can it build?" style="rhombus;whiteSpace=wrap;html=1;fillColor=#ffffc0;strokeColor=#ff0000;fontColor=#3B3B3B;" parent="1" vertex="1">
                    <mxGeometry x="-2285" y="-315" width="90" height="45" as="geometry"/>
                </mxCell>
                <mxCell id="134" value="no" style="edgeStyle=orthogonalEdgeStyle;html=1;align=left;verticalAlign=bottom;endArrow=open;endSize=8;strokeColor=#ff0000;labelBackgroundColor=none;fontColor=#3B3B3B;entryX=0;entryY=0.5;entryDx=0;entryDy=0;" parent="1" source="133" target="136" edge="1">
                    <mxGeometry x="-1" relative="1" as="geometry">
                        <mxPoint x="-2100" y="-270" as="targetPoint"/>
                    </mxGeometry>
                </mxCell>
                <mxCell id="135" value="yes" style="edgeStyle=orthogonalEdgeStyle;html=1;align=left;verticalAlign=top;endArrow=open;endSize=8;strokeColor=#ff0000;labelBackgroundColor=none;fontColor=#3B3B3B;entryX=0.5;entryY=0;entryDx=0;entryDy=0;" parent="1" source="133" target="137" edge="1">
                    <mxGeometry x="-1" relative="1" as="geometry">
                        <mxPoint x="-2240" y="-190" as="targetPoint"/>
                    </mxGeometry>
                </mxCell>
                <mxCell id="136" value="" style="ellipse;html=1;shape=endState;fillColor=#000000;strokeColor=#ff0000;fontColor=#3B3B3B;" parent="1" vertex="1">
                    <mxGeometry x="-2130" y="-307.5" width="30" height="30" as="geometry"/>
                </mxCell>
                <mxCell id="137" value="Test" style="rounded=1;whiteSpace=wrap;html=1;arcSize=40;fontColor=#000000;fillColor=#ffffc0;strokeColor=#ff0000;" parent="1" vertex="1">
                    <mxGeometry x="-2300" y="-220" width="120" height="40" as="geometry"/>
                </mxCell>
                <mxCell id="138" value="" style="edgeStyle=orthogonalEdgeStyle;html=1;verticalAlign=bottom;endArrow=open;endSize=8;strokeColor=#ff0000;labelBackgroundColor=none;fontColor=#3B3B3B;entryX=0.5;entryY=0;entryDx=0;entryDy=0;" parent="1" source="137" target="139" edge="1">
                    <mxGeometry relative="1" as="geometry">
                        <mxPoint x="-2235" y="-70" as="targetPoint"/>
                    </mxGeometry>
                </mxCell>
                <mxCell id="139" value="Pass test?" style="rhombus;whiteSpace=wrap;html=1;fillColor=#ffffc0;strokeColor=#ff0000;fontColor=#3B3B3B;" parent="1" vertex="1">
                    <mxGeometry x="-2280" y="-135" width="80" height="40" as="geometry"/>
                </mxCell>
                <mxCell id="140" value="no" style="edgeStyle=orthogonalEdgeStyle;html=1;align=left;verticalAlign=bottom;endArrow=open;endSize=8;strokeColor=#ff0000;labelBackgroundColor=none;fontColor=#3B3B3B;entryX=0;entryY=0.5;entryDx=0;entryDy=0;" parent="1" source="139" target="142" edge="1">
                    <mxGeometry x="-1" relative="1" as="geometry">
                        <mxPoint x="-2220" y="-70" as="targetPoint"/>
                    </mxGeometry>
                </mxCell>
                <mxCell id="141" value="yes" style="edgeStyle=orthogonalEdgeStyle;html=1;align=left;verticalAlign=top;endArrow=open;endSize=8;strokeColor=#ff0000;labelBackgroundColor=none;fontColor=#3B3B3B;entryX=0.5;entryY=0;entryDx=0;entryDy=0;" parent="1" source="139" target="143" edge="1">
                    <mxGeometry x="-1" relative="1" as="geometry">
                        <mxPoint x="-2360" y="10" as="targetPoint"/>
                    </mxGeometry>
                </mxCell>
                <mxCell id="142" value="" style="ellipse;html=1;shape=endState;fillColor=#000000;strokeColor=#ff0000;fontColor=#3B3B3B;" parent="1" vertex="1">
                    <mxGeometry x="-2130" y="-130" width="30" height="30" as="geometry"/>
                </mxCell>
                <mxCell id="143" value="Build for windows" style="rounded=1;whiteSpace=wrap;html=1;arcSize=40;fontColor=#000000;fillColor=#ffffc0;strokeColor=#ff0000;" parent="1" vertex="1">
                    <mxGeometry x="-2300" y="-60" width="120" height="40" as="geometry"/>
                </mxCell>
                <mxCell id="144" value="" style="edgeStyle=orthogonalEdgeStyle;html=1;verticalAlign=bottom;endArrow=open;endSize=8;strokeColor=#ff0000;labelBackgroundColor=none;fontColor=#3B3B3B;entryX=0.5;entryY=0;entryDx=0;entryDy=0;" parent="1" source="143" target="145" edge="1">
                    <mxGeometry relative="1" as="geometry">
                        <mxPoint x="-2240" y="40" as="targetPoint"/>
                    </mxGeometry>
                </mxCell>
                <mxCell id="145" value="Build for MacOS" style="rounded=1;whiteSpace=wrap;html=1;arcSize=40;fontColor=#000000;fillColor=#ffffc0;strokeColor=#ff0000;" parent="1" vertex="1">
                    <mxGeometry x="-2300" y="30" width="120" height="40" as="geometry"/>
                </mxCell>
                <mxCell id="146" value="" style="edgeStyle=orthogonalEdgeStyle;html=1;verticalAlign=bottom;endArrow=open;endSize=8;strokeColor=#ff0000;labelBackgroundColor=none;fontColor=#3B3B3B;entryX=0.5;entryY=0;entryDx=0;entryDy=0;" parent="1" source="145" target="147" edge="1">
                    <mxGeometry relative="1" as="geometry">
                        <mxPoint x="-2240" y="150" as="targetPoint"/>
                    </mxGeometry>
                </mxCell>
                <mxCell id="147" value="Build for Linux" style="rounded=1;whiteSpace=wrap;html=1;arcSize=40;fontColor=#000000;fillColor=#ffffc0;strokeColor=#ff0000;" parent="1" vertex="1">
                    <mxGeometry x="-2300" y="120" width="120" height="40" as="geometry"/>
                </mxCell>
                <mxCell id="148" value="" style="edgeStyle=orthogonalEdgeStyle;html=1;verticalAlign=bottom;endArrow=open;endSize=8;strokeColor=#ff0000;labelBackgroundColor=none;fontColor=#3B3B3B;entryX=0.5;entryY=0;entryDx=0;entryDy=0;" parent="1" source="147" target="156" edge="1">
                    <mxGeometry relative="1" as="geometry">
                        <mxPoint x="-2240" y="260" as="targetPoint"/>
                    </mxGeometry>
                </mxCell>
                <mxCell id="156" value="Zip Files" style="rounded=1;whiteSpace=wrap;html=1;arcSize=40;fontColor=#000000;fillColor=#ffffc0;strokeColor=#ff0000;" parent="1" vertex="1">
                    <mxGeometry x="-2300" y="210" width="120" height="40" as="geometry"/>
                </mxCell>
                <mxCell id="157" value="" style="edgeStyle=orthogonalEdgeStyle;html=1;verticalAlign=bottom;endArrow=open;endSize=8;strokeColor=#ff0000;labelBackgroundColor=none;fontColor=#3B3B3B;entryX=0.5;entryY=0;entryDx=0;entryDy=0;" parent="1" source="156" target="158" edge="1">
                    <mxGeometry relative="1" as="geometry">
                        <mxPoint x="-2240" y="390" as="targetPoint"/>
                    </mxGeometry>
                </mxCell>
                <mxCell id="158" value="Has tag" style="rhombus;whiteSpace=wrap;html=1;fillColor=#ffffc0;strokeColor=#ff0000;fontColor=#3B3B3B;" parent="1" vertex="1">
                    <mxGeometry x="-2280" y="310" width="80" height="40" as="geometry"/>
                </mxCell>
                <mxCell id="159" value="no" style="edgeStyle=orthogonalEdgeStyle;html=1;align=left;verticalAlign=bottom;endArrow=open;endSize=8;strokeColor=#ff0000;labelBackgroundColor=none;fontColor=#3B3B3B;entryX=0;entryY=0.5;entryDx=0;entryDy=0;" parent="1" source="158" target="161" edge="1">
                    <mxGeometry x="-1" relative="1" as="geometry">
                        <mxPoint x="-1970" y="350" as="targetPoint"/>
                    </mxGeometry>
                </mxCell>
                <mxCell id="160" value="yes" style="edgeStyle=orthogonalEdgeStyle;html=1;align=left;verticalAlign=top;endArrow=open;endSize=8;strokeColor=#ff0000;labelBackgroundColor=none;fontColor=#3B3B3B;entryX=0.5;entryY=0;entryDx=0;entryDy=0;" parent="1" source="158" target="162" edge="1">
                    <mxGeometry x="-1" relative="1" as="geometry">
                        <mxPoint x="-2110" y="430" as="targetPoint"/>
                    </mxGeometry>
                </mxCell>
                <mxCell id="161" value="" style="ellipse;html=1;shape=endState;fillColor=#000000;strokeColor=#ff0000;fontColor=#3B3B3B;" parent="1" vertex="1">
                    <mxGeometry x="-2130" y="315" width="30" height="30" as="geometry"/>
                </mxCell>
                <mxCell id="162" value="Publish (make new release)" style="rounded=1;whiteSpace=wrap;html=1;arcSize=40;fontColor=#000000;fillColor=#ffffc0;strokeColor=#ff0000;" parent="1" vertex="1">
                    <mxGeometry x="-2300" y="400" width="120" height="40" as="geometry"/>
                </mxCell>
                <mxCell id="163" value="" style="edgeStyle=orthogonalEdgeStyle;html=1;verticalAlign=bottom;endArrow=open;endSize=8;strokeColor=#ff0000;labelBackgroundColor=none;fontColor=#3B3B3B;entryX=0.5;entryY=0;entryDx=0;entryDy=0;" parent="1" source="162" target="164" edge="1">
                    <mxGeometry relative="1" as="geometry">
                        <mxPoint x="-2240" y="510" as="targetPoint"/>
                    </mxGeometry>
                </mxCell>
                <mxCell id="164" value="" style="ellipse;html=1;shape=endState;fillColor=#000000;strokeColor=#ff0000;fontColor=#3B3B3B;" parent="1" vertex="1">
                    <mxGeometry x="-2255" y="480" width="30" height="30" as="geometry"/>
                </mxCell>
                <mxCell id="165" value="&lt;span style=&quot;font-size: 19px;&quot;&gt;Build and deploy&lt;/span&gt;" style="text;html=1;strokeColor=none;fillColor=none;align=center;verticalAlign=middle;whiteSpace=wrap;rounded=0;fontColor=#050505;" parent="1" vertex="1">
                    <mxGeometry x="-2535" y="-920" width="120" height="30" as="geometry"/>
                </mxCell>
                <mxCell id="166" value="" style="ellipse;html=1;shape=startState;fillColor=#000000;strokeColor=#ff0000;fontColor=#3B3B3B;" parent="1" vertex="1">
                    <mxGeometry x="-2490" y="-850" width="30" height="30" as="geometry"/>
                </mxCell>
                <mxCell id="167" value="" style="edgeStyle=orthogonalEdgeStyle;html=1;verticalAlign=bottom;endArrow=open;endSize=8;strokeColor=#ff0000;labelBackgroundColor=none;fontColor=#3B3B3B;entryX=0.5;entryY=0;entryDx=0;entryDy=0;" parent="1" source="166" target="168" edge="1">
                    <mxGeometry relative="1" as="geometry">
                        <mxPoint x="-2440" y="-790" as="targetPoint"/>
                    </mxGeometry>
                </mxCell>
                <mxCell id="168" value="Create Job &quot;Build&quot;" style="rounded=1;whiteSpace=wrap;html=1;arcSize=40;fontColor=#000000;fillColor=#ffffc0;strokeColor=#ff0000;" parent="1" vertex="1">
                    <mxGeometry x="-2535" y="-760" width="120" height="40" as="geometry"/>
                </mxCell>
                <mxCell id="169" value="" style="edgeStyle=orthogonalEdgeStyle;html=1;verticalAlign=bottom;endArrow=open;endSize=8;strokeColor=#ff0000;labelBackgroundColor=none;fontColor=#3B3B3B;entryX=0.5;entryY=0;entryDx=0;entryDy=0;" parent="1" source="168" target="170" edge="1">
                    <mxGeometry relative="1" as="geometry">
                        <mxPoint x="-2475" y="-660" as="targetPoint"/>
                    </mxGeometry>
                </mxCell>
                <mxCell id="170" value="Setup dotnet" style="rounded=1;whiteSpace=wrap;html=1;arcSize=40;fontColor=#000000;fillColor=#ffffc0;strokeColor=#ff0000;" parent="1" vertex="1">
                    <mxGeometry x="-2535" y="-670" width="120" height="40" as="geometry"/>
                </mxCell>
                <mxCell id="171" value="" style="edgeStyle=orthogonalEdgeStyle;html=1;verticalAlign=bottom;endArrow=open;endSize=8;strokeColor=#ff0000;labelBackgroundColor=none;fontColor=#3B3B3B;entryX=0.5;entryY=0;entryDx=0;entryDy=0;" parent="1" source="170" target="172" edge="1">
                    <mxGeometry relative="1" as="geometry">
                        <mxPoint x="-2450" y="-550" as="targetPoint"/>
                    </mxGeometry>
                </mxCell>
                <mxCell id="172" value="Restore dependencies" style="rounded=1;whiteSpace=wrap;html=1;arcSize=40;fontColor=#000000;fillColor=#ffffc0;strokeColor=#ff0000;" parent="1" vertex="1">
                    <mxGeometry x="-2535" y="-580" width="120" height="40" as="geometry"/>
                </mxCell>
                <mxCell id="173" value="" style="edgeStyle=orthogonalEdgeStyle;html=1;verticalAlign=bottom;endArrow=open;endSize=8;strokeColor=#ff0000;labelBackgroundColor=none;fontColor=#3B3B3B;entryX=0.5;entryY=0;entryDx=0;entryDy=0;" parent="1" source="172" target="174" edge="1">
                    <mxGeometry relative="1" as="geometry">
                        <mxPoint x="-2440" y="-500" as="targetPoint"/>
                    </mxGeometry>
                </mxCell>
                <mxCell id="174" value="&lt;span style=&quot;color: rgb(41, 41, 41);&quot;&gt;Does it&amp;nbsp;&lt;/span&gt;&lt;span style=&quot;color: rgb(41, 41, 41);&quot; class=&quot;pl-s&quot;&gt;Restore dependencies?&lt;/span&gt;" style="rhombus;whiteSpace=wrap;html=1;fillColor=#ffffc0;strokeColor=#ff0000;fontColor=#3B3B3B;" parent="1" vertex="1">
                    <mxGeometry x="-2540" y="-510" width="130" height="60" as="geometry"/>
                </mxCell>
                <mxCell id="175" value="no" style="edgeStyle=orthogonalEdgeStyle;html=1;align=left;verticalAlign=bottom;endArrow=open;endSize=8;strokeColor=#ff0000;labelBackgroundColor=none;fontColor=#3B3B3B;entryX=0;entryY=0.5;entryDx=0;entryDy=0;" parent="1" source="174" target="177" edge="1">
                    <mxGeometry x="-1" relative="1" as="geometry">
                        <mxPoint x="-2395" y="-480" as="targetPoint"/>
                    </mxGeometry>
                </mxCell>
                <mxCell id="176" value="yes" style="edgeStyle=orthogonalEdgeStyle;html=1;align=left;verticalAlign=top;endArrow=open;endSize=8;strokeColor=#ff0000;labelBackgroundColor=none;fontColor=#3B3B3B;entryX=0.5;entryY=0;entryDx=0;entryDy=0;" parent="1" source="174" target="178" edge="1">
                    <mxGeometry x="-1" relative="1" as="geometry">
                        <mxPoint x="-2655" y="-395" as="targetPoint"/>
                    </mxGeometry>
                </mxCell>
                <mxCell id="177" value="" style="ellipse;html=1;shape=endState;fillColor=#000000;strokeColor=#ff0000;fontColor=#3B3B3B;" parent="1" vertex="1">
                    <mxGeometry x="-2365" y="-495" width="30" height="30" as="geometry"/>
                </mxCell>
                <mxCell id="178" value="Build" style="rounded=1;whiteSpace=wrap;html=1;arcSize=40;fontColor=#000000;fillColor=#ffffc0;strokeColor=#ff0000;" parent="1" vertex="1">
                    <mxGeometry x="-2535" y="-410" width="120" height="40" as="geometry"/>
                </mxCell>
                <mxCell id="179" value="" style="edgeStyle=orthogonalEdgeStyle;html=1;verticalAlign=bottom;endArrow=open;endSize=8;strokeColor=#ff0000;labelBackgroundColor=none;fontColor=#3B3B3B;entryX=0.5;entryY=0;entryDx=0;entryDy=0;" parent="1" source="178" target="180" edge="1">
                    <mxGeometry relative="1" as="geometry">
                        <mxPoint x="-2475" y="-310" as="targetPoint"/>
                    </mxGeometry>
                </mxCell>
                <mxCell id="180" value="Can it build?" style="rhombus;whiteSpace=wrap;html=1;fillColor=#ffffc0;strokeColor=#ff0000;fontColor=#3B3B3B;" parent="1" vertex="1">
                    <mxGeometry x="-2520" y="-315" width="90" height="45" as="geometry"/>
                </mxCell>
                <mxCell id="181" value="no" style="edgeStyle=orthogonalEdgeStyle;html=1;align=left;verticalAlign=bottom;endArrow=open;endSize=8;strokeColor=#ff0000;labelBackgroundColor=none;fontColor=#3B3B3B;entryX=0;entryY=0.5;entryDx=0;entryDy=0;" parent="1" source="180" target="183" edge="1">
                    <mxGeometry x="-1" relative="1" as="geometry">
                        <mxPoint x="-2335" y="-270" as="targetPoint"/>
                    </mxGeometry>
                </mxCell>
                <mxCell id="182" value="yes" style="edgeStyle=orthogonalEdgeStyle;html=1;align=left;verticalAlign=top;endArrow=open;endSize=8;strokeColor=#ff0000;labelBackgroundColor=none;fontColor=#3B3B3B;entryX=0.5;entryY=0;entryDx=0;entryDy=0;" parent="1" source="180" target="190" edge="1">
                    <mxGeometry x="-1" relative="1" as="geometry">
                        <mxPoint x="-2475" y="-220" as="targetPoint"/>
                    </mxGeometry>
                </mxCell>
                <mxCell id="183" value="" style="ellipse;html=1;shape=endState;fillColor=#000000;strokeColor=#ff0000;fontColor=#3B3B3B;" parent="1" vertex="1">
                    <mxGeometry x="-2365" y="-307.5" width="30" height="30" as="geometry"/>
                </mxCell>
                <mxCell id="190" value="dotnet Publish" style="rounded=1;whiteSpace=wrap;html=1;arcSize=40;fontColor=#000000;fillColor=#ffffc0;strokeColor=#ff0000;" parent="1" vertex="1">
                    <mxGeometry x="-2535" y="-222.5" width="120" height="40" as="geometry"/>
                </mxCell>
                <mxCell id="191" value="" style="edgeStyle=orthogonalEdgeStyle;html=1;verticalAlign=bottom;endArrow=open;endSize=8;strokeColor=#ff0000;labelBackgroundColor=none;fontColor=#3B3B3B;entryX=0.5;entryY=0;entryDx=0;entryDy=0;" parent="1" source="190" target="192" edge="1">
                    <mxGeometry relative="1" as="geometry">
                        <mxPoint x="-2475" y="-112.5" as="targetPoint"/>
                    </mxGeometry>
                </mxCell>
                <mxCell id="192" value="Pass?" style="rhombus;whiteSpace=wrap;html=1;fillColor=#ffffc0;strokeColor=#ff0000;fontColor=#3B3B3B;" parent="1" vertex="1">
                    <mxGeometry x="-2515" y="-137.5" width="80" height="40" as="geometry"/>
                </mxCell>
                <mxCell id="193" value="no" style="edgeStyle=orthogonalEdgeStyle;html=1;align=left;verticalAlign=bottom;endArrow=open;endSize=8;strokeColor=#ff0000;labelBackgroundColor=none;fontColor=#3B3B3B;" parent="1" source="192" target="195" edge="1">
                    <mxGeometry x="-1" relative="1" as="geometry">
                        <mxPoint x="-2335" y="-77.5" as="targetPoint"/>
                    </mxGeometry>
                </mxCell>
                <mxCell id="194" value="yes" style="edgeStyle=orthogonalEdgeStyle;html=1;align=left;verticalAlign=top;endArrow=open;endSize=8;strokeColor=#ff0000;labelBackgroundColor=none;fontColor=#3B3B3B;entryX=0.5;entryY=0;entryDx=0;entryDy=0;" parent="1" source="192" target="198" edge="1">
                    <mxGeometry x="-1" relative="1" as="geometry">
                        <mxPoint x="-2475" y="-52.5" as="targetPoint"/>
                    </mxGeometry>
                </mxCell>
                <mxCell id="195" value="" style="ellipse;html=1;shape=endState;fillColor=#000000;strokeColor=#ff0000;fontColor=#3B3B3B;" parent="1" vertex="1">
                    <mxGeometry x="-2365" y="-132.5" width="30" height="30" as="geometry"/>
                </mxCell>
                <mxCell id="198" value="Upload artifact to deploy job" style="rounded=1;whiteSpace=wrap;html=1;arcSize=40;fontColor=#000000;fillColor=#ffffc0;strokeColor=#ff0000;" parent="1" vertex="1">
                    <mxGeometry x="-2535" y="-42.5" width="120" height="40" as="geometry"/>
                </mxCell>
                <mxCell id="199" value="" style="edgeStyle=orthogonalEdgeStyle;html=1;verticalAlign=bottom;endArrow=open;endSize=8;strokeColor=#ff0000;labelBackgroundColor=none;fontColor=#3B3B3B;entryX=0.5;entryY=0;entryDx=0;entryDy=0;" parent="1" source="198" target="200" edge="1">
                    <mxGeometry relative="1" as="geometry">
                        <mxPoint x="-2475" y="37.5" as="targetPoint"/>
                    </mxGeometry>
                </mxCell>
                <mxCell id="200" value="Create Job &quot;Deploy&quot;" style="rounded=1;whiteSpace=wrap;html=1;arcSize=40;fontColor=#000000;fillColor=#ffffc0;strokeColor=#ff0000;" parent="1" vertex="1">
                    <mxGeometry x="-2535" y="37.5" width="120" height="40" as="geometry"/>
                </mxCell>
                <mxCell id="201" value="" style="edgeStyle=orthogonalEdgeStyle;html=1;verticalAlign=bottom;endArrow=open;endSize=8;strokeColor=#ff0000;labelBackgroundColor=none;fontColor=#3B3B3B;entryX=0.5;entryY=0;entryDx=0;entryDy=0;" parent="1" source="200" target="202" edge="1">
                    <mxGeometry relative="1" as="geometry">
                        <mxPoint x="-2475" y="137.5" as="targetPoint"/>
                    </mxGeometry>
                </mxCell>
                <mxCell id="202" value="Download artifact from build job" style="rounded=1;whiteSpace=wrap;html=1;arcSize=40;fontColor=#000000;fillColor=#ffffc0;strokeColor=#ff0000;" parent="1" vertex="1">
                    <mxGeometry x="-2535" y="117.5" width="120" height="40" as="geometry"/>
                </mxCell>
                <mxCell id="203" value="" style="edgeStyle=orthogonalEdgeStyle;html=1;verticalAlign=bottom;endArrow=open;endSize=8;strokeColor=#ff0000;labelBackgroundColor=none;fontColor=#3B3B3B;entryX=0.5;entryY=0;entryDx=0;entryDy=0;" parent="1" source="202" target="204" edge="1">
                    <mxGeometry relative="1" as="geometry">
                        <mxPoint x="-2475" y="187.5" as="targetPoint"/>
                    </mxGeometry>
                </mxCell>
                <mxCell id="204" value="Deploy to azure web app&amp;nbsp;" style="rounded=1;whiteSpace=wrap;html=1;arcSize=40;fontColor=#000000;fillColor=#ffffc0;strokeColor=#ff0000;" parent="1" vertex="1">
                    <mxGeometry x="-2535" y="207.5" width="120" height="40" as="geometry"/>
                </mxCell>
                <mxCell id="205" value="" style="edgeStyle=orthogonalEdgeStyle;html=1;verticalAlign=bottom;endArrow=open;endSize=8;strokeColor=#ff0000;labelBackgroundColor=none;fontColor=#3B3B3B;entryX=0.5;entryY=0;entryDx=0;entryDy=0;" parent="1" source="204" target="206" edge="1">
                    <mxGeometry relative="1" as="geometry">
                        <mxPoint x="-2475" y="307.5" as="targetPoint"/>
                    </mxGeometry>
                </mxCell>
                <mxCell id="206" value="" style="ellipse;html=1;shape=endState;fillColor=#000000;strokeColor=#ff0000;fontColor=#3B3B3B;" parent="1" vertex="1">
                    <mxGeometry x="-2490" y="287.5" width="30" height="30" as="geometry"/>
                </mxCell>
            </root>
        </mxGraphModel>
    </diagram>
</mxfile>